<?xml version="1.0" standalone="no"?>
<!DOCTYPE svg PUBLIC "-//W3C//DTD SVG 20010904//EN"
 "http://www.w3.org/TR/2001/REC-SVG-20010904/DTD/svg10.dtd">
<svg version="1.0" xmlns="http://www.w3.org/2000/svg"
 width="1024.000000pt" height="1024.000000pt" viewBox="0 0 1024.000000 1024.000000"
 preserveAspectRatio="xMidYMid meet">
<metadata>
Created by potrace 1.14, written by Peter Selinger 2001-2017
</metadata>
<g transform="translate(0.000000,1024.000000) scale(0.100000,-0.100000)"
fill="#000000" stroke="none">
<path d="M0 5120 l0 -5120 5120 0 5120 0 0 5120 0 5120 -5120 0 -5120 0 0
-5120z m5000 1848 l0 -633 -287 -287 -288 -288 -927 0 -928 0 0 -292 0 -293
-271 -325 c-149 -179 -277 -332 -285 -340 -12 -12 -14 72 -14 611 l0 626 286
291 286 292 924 0 924 0 0 348 0 347 -1210 0 -1210 0 0 288 0 287 1500 0 1500
0 0 -632z m810 -3 l0 -635 923 0 922 0 288 -288 288 -288 -3 -525 c-1 -288 -4
-572 -6 -632 l-3 -107 -285 0 -284 0 0 628 0 629 -587 6 c-322 4 -739 7 -925
7 l-338 0 0 -635 0 -635 -285 0 -285 0 0 1555 0 1555 290 0 290 0 0 -635z
m2420 292 l0 -342 -290 -290 -290 -290 0 633 0 632 290 0 290 0 0 -343z
m-3234 -2470 c-3 -150 -6 -278 -6 -285 0 -9 -275 -12 -1205 -12 l-1205 0 0
285 0 285 1211 0 1211 0 -6 -273z m-2846 -942 c0 -3 56 -244 125 -536 69 -292
125 -533 125 -535 0 -2 6 -4 13 -4 9 0 36 83 81 243 37 133 97 347 133 475
l66 232 73 0 73 0 14 -47 c8 -27 67 -240 133 -475 73 -263 124 -428 131 -428
15 0 8 -26 149 573 l119 508 65 -3 c55 -3 65 -6 68 -22 2 -11 -58 -282 -134
-603 l-138 -583 -122 0 -122 0 -11 33 c-5 17 -56 199 -112 402 -55 204 -104
376 -108 383 -4 7 -59 -171 -122 -400 l-114 -413 -124 0 -125 0 -138 580 c-76
319 -135 590 -133 603 5 20 11 22 70 22 36 0 65 -2 65 -5z m2075 -330 c35 -21
56 -45 74 -80 l26 -49 3 -373 3 -373 -264 0 c-307 0 -343 6 -400 70 -98 107
-84 331 25 410 56 41 115 50 318 50 l180 0 0 90 c0 102 -13 139 -55 158 -17 8
-94 12 -235 12 l-210 0 0 34 c0 27 7 40 33 61 l32 26 211 -3 211 -3 48 -30z
m802 9 c26 -20 33 -32 33 -59 l0 -34 -149 -3 c-130 -3 -152 -5 -170 -22 -21
-19 -21 -26 -21 -393 l0 -373 -70 0 -70 0 0 400 c0 444 -2 429 66 471 53 33
80 37 218 38 124 1 131 0 163 -25z m769 -1 c29 -21 34 -32 32 -57 l-3 -31
-218 -5 -219 -5 -23 -27 c-49 -57 -38 -166 20 -199 17 -10 97 -29 178 -43 81
-14 165 -35 186 -46 131 -66 163 -283 59 -396 -60 -65 -100 -74 -342 -74 -191
0 -201 1 -233 23 -27 18 -33 28 -33 60 l0 37 219 0 c121 0 231 4 245 10 41 15
61 56 60 121 -1 61 -19 100 -54 119 -11 6 -83 22 -160 35 -156 28 -201 43
-244 83 -46 44 -66 97 -66 182 0 85 20 138 67 182 52 49 90 57 301 57 l193 1
35 -27z m827 16 c50 -14 106 -64 131 -119 20 -43 21 -65 24 -413 l3 -368 -289
3 -289 3 -48 30 c-65 40 -98 103 -103 198 -6 97 11 166 53 215 59 68 90 76
328 80 l207 4 0 81 c0 93 -19 144 -60 164 -18 9 -87 13 -232 13 l-208 0 0 38
c0 30 6 41 33 60 30 21 41 22 222 22 104 0 207 -5 228 -11z m542 -384 c64
-272 96 -391 106 -393 10 -2 43 99 125 390 l111 393 81 3 81 3 20 -68 c11 -37
61 -215 112 -395 90 -320 109 -367 124 -305 3 12 45 189 94 392 l87 370 59 3
c32 2 62 -1 67 -6 5 -5 -38 -199 -99 -456 l-108 -447 -114 3 -114 3 -99 360
c-55 198 -103 363 -107 367 -4 4 -47 -137 -95 -315 -49 -177 -95 -343 -103
-369 l-14 -48 -112 0 -113 0 -108 445 c-59 244 -104 449 -101 455 4 6 32 10
68 8 l61 -3 91 -390z"/>
<path d="M3823 3050 c-18 -4 -39 -13 -47 -20 -25 -20 -38 -79 -34 -146 3 -54
9 -69 31 -92 l27 -27 195 -3 195 -3 0 150 0 151 -167 -1 c-93 -1 -183 -5 -200
-9z"/>
<path d="M6271 3050 c-58 -14 -75 -40 -79 -125 -8 -153 12 -165 268 -165 l181
0 -3 148 -3 147 -165 2 c-91 0 -180 -2 -199 -7z"/>
</g>
</svg>
