<?xml version="1.0" encoding="UTF-8"?><svg id="a" xmlns="http://www.w3.org/2000/svg" xmlns:xlink="http://www.w3.org/1999/xlink" viewBox="0 0 5816.65 1000"><defs><style>.f{fill:url(#c);}.g{fill:url(#b);}.h{fill:url(#d);}.i{fill:url(#e);}</style><linearGradient id="b" x1="-113.74" y1="913.74" x2="797.06" y2="2.94" gradientTransform="matrix(1, 0, 0, 1, 0, 0)" gradientUnits="userSpaceOnUse"><stop offset=".06" stop-color="#5400ff"/><stop offset=".61" stop-color="#00cfff"/></linearGradient><linearGradient id="c" x1="100" y1="30.64" x2="100" y2="576.77" gradientTransform="matrix(1, 0, 0, 1, 0, 0)" gradientUnits="userSpaceOnUse"><stop offset=".29" stop-color="#5400ff"/><stop offset=".4" stop-color="#3b3bff"/><stop offset=".53" stop-color="#227aff"/><stop offset=".64" stop-color="#0fa8ff"/><stop offset=".72" stop-color="#04c4ff"/><stop offset=".77" stop-color="#00cfff"/></linearGradient><linearGradient id="d" x1="737.79" y1="419.41" x2="737.79" y2="965.54" gradientTransform="translate(-237.79 11.23)" xlink:href="#c"/><linearGradient id="e" x1="743.8" y1="499.98" x2="5816.65" y2="499.98" gradientTransform="matrix(1, 0, 0, 1, 0, 0)" gradientUnits="userSpaceOnUse"><stop offset="0" stop-color="#286bff"/><stop offset="1" stop-color="#412fff"/></linearGradient></defs><polygon class="g" points="600 200 600 600 200 600 200 1000 0 800 0 400 400 400 400 0 600 200"/><rect class="f" y="200" width="200" height="200"/><rect class="h" x="400" y="600" width="200" height="200"/><path class="i" d="M893.25,545.74h273.58v-109.96h-273.58v-125.83h292.9l-109.94-109.94h-332.41V799.99h332.4l109.96-109.96h-292.9v-144.3Zm854.23,84.25c-27.14-60.08-55.77-96.98-85.88-110.68,68.71-31.76,103.07-80.68,103.07-146.78,0-47.78-18.19-88.49-54.55-122.1-36.36-33.63-83.6-50.43-141.72-50.43h-267.99V799.97h149.45v-243.52h42.95c19.76,0,38.29,7.88,55.62,23.62,17.32,15.74,38.13,51.4,62.47,106.94,24.33,55.55,41.38,93.2,51.18,112.96h164c-25.27-53.22-51.46-109.88-78.6-169.99Zm-158.69-201.31c-14.75,11.89-34.71,17.84-59.91,17.84h-79.02v-136.58h75.59c56.98,0,85.46,22.62,85.46,67.86,0,22.05-7.37,39.02-22.12,50.89Zm860.04-143.87c-63.28-61.7-146.02-92.55-248.23-92.55s-185.47,30.77-248.89,92.33c-63.42,61.57-95.12,133.43-95.12,215.6s31.92,155.76,95.76,216.46c63.85,60.7,146.6,91.05,248.25,91.05s182.81-30.5,246.95-91.48c64.13-60.99,96.19-133,96.19-216.03s-31.63-153.68-94.91-215.38Zm-111.24,347.87c-34.64,33.65-80.3,50.47-137,50.47s-102.87-16.81-137.65-50.47c-34.79-33.64-52.18-77.8-52.18-132.49s17.39-99.21,52.18-132.72c34.79-33.49,80.67-50.24,137.65-50.24s102.36,16.75,137,50.24c34.65,33.51,51.97,77.74,51.97,132.72s-17.32,98.85-51.97,132.49Zm820.52-348.74c-59.42-55.97-140.22-83.96-242.44-83.96h-264.57V799.97h247.82c111.67,0,197.63-26.56,257.91-79.68,60.26-53.11,90.4-126.19,90.4-219.25s-29.7-161.12-89.12-217.1Zm-114.88,353.89c-33.5,34.78-81.89,52.18-145.17,52.18h-97.49V309.93h95.78c63.56,0,112.31,16.96,146.23,50.9,33.94,33.92,50.9,80.39,50.9,139.36s-16.75,102.87-50.24,137.65Zm880.43-353.03c-63.28-61.7-146.02-92.55-248.25-92.55s-185.46,30.77-248.87,92.33c-63.43,61.57-95.14,133.43-95.14,215.6s31.93,155.76,95.78,216.46c63.85,60.7,146.6,91.05,248.23,91.05s182.81-30.5,246.95-91.48c64.14-60.99,96.21-133,96.21-216.03s-31.63-153.68-94.91-215.38Zm-111.24,347.87c-34.65,33.65-80.32,50.47-137.01,50.47s-102.85-16.81-137.64-50.47c-34.8-33.64-52.19-77.8-52.19-132.49s17.39-99.21,52.19-132.72c34.79-33.49,80.66-50.24,137.64-50.24s102.36,16.75,137.01,50.24c34.64,33.51,51.97,77.74,51.97,132.72s-17.33,98.85-51.97,132.49Zm1290.85-432.69v334.56c0,47.54-13.82,84.18-41.44,109.96-27.63,25.76-64.5,38.65-110.6,38.65s-80.24-12.59-107.58-37.8c-27.35-25.18-41.01-58.69-41.01-100.49V199.99h-149.9v341.44c0,85.89,26.27,151.74,78.81,197.56,52.53,45.81,126.34,68.72,221.4,68.72s170.21-22.62,222.04-67.86c51.82-45.24,77.73-111.67,77.73-199.28V199.99h-149.45Zm348.21,468.23c8.65,4.19,16.99,7.87,25.01,11.07,30.92,12.31,63.7,18.46,98.35,18.46,58.69,0,88.05-18.45,88.05-55.37,0-12.59-5.88-24.47-17.63-35.62-11.74-11.16-40.02-24.75-84.83-40.78-44.82-16.03-80.32-30.91-106.51-44.66-26.19-13.75-48.8-33.37-67.85-58.85-19.03-25.49-28.54-58.15-28.54-97.95,0-51.55,20.75-93.15,62.27-124.8,41.52-31.65,97.07-47.46,166.64-47.46,64.13,0,131.85,15.46,203.15,46.38l-84.08,84.08c-41.58-13.68-76.97-20.52-106.18-20.52-26.92,0-48.32,4.51-64.22,13.53-15.88,9.02-23.83,20.97-23.83,35.86,0,11.46,5.72,22.34,17.18,32.64,11.45,10.31,39.36,23.62,83.75,39.94,44.37,16.32,79.87,31.5,106.51,45.53,26.62,14.03,49.6,33.79,68.93,59.27,19.32,25.48,28.99,57.69,28.99,96.62,0,55.56-21.12,99.79-63.34,132.71-42.24,32.93-97.86,49.4-166.86,49.4-74.44,0-146.6-19.34-216.45-57.99l81.5-81.5ZM4008.37,199.99l109.94,109.95h107.37v490.04h149.46V309.94h107.37l109.94-109.95h-584.09Z"/></svg>