<svg id="visual" viewBox="0 0 960 540" width="960" height="540" xmlns="http://www.w3.org/2000/svg" xmlns:xlink="http://www.w3.org/1999/xlink" version="1.1"><rect x="0" y="0" width="960" height="540" fill="#000"></rect><path d="M0 144L32 138.5C64 133 128 122 192 127.8C256 133.7 320 156.3 384 154.5C448 152.7 512 126.3 576 114.5C640 102.7 704 105.3 768 114.3C832 123.3 896 138.7 928 146.3L960 154L960 0L928 0C896 0 832 0 768 0C704 0 640 0 576 0C512 0 448 0 384 0C320 0 256 0 192 0C128 0 64 0 32 0L0 0Z" fill="#00ce45"></path><path d="M0 111L32 106.5C64 102 128 93 192 95.5C256 98 320 112 384 113.8C448 115.7 512 105.3 576 100C640 94.7 704 94.3 768 91.5C832 88.7 896 83.3 928 80.7L960 78L960 0L928 0C896 0 832 0 768 0C704 0 640 0 576 0C512 0 448 0 384 0C320 0 256 0 192 0C128 0 64 0 32 0L0 0Z" fill="#00da49"></path><path d="M0 33L32 31.5C64 30 128 27 192 25.8C256 24.7 320 25.3 384 27.7C448 30 512 34 576 42.7C640 51.3 704 64.7 768 70.5C832 76.3 896 74.7 928 73.8L960 73L960 0L928 0C896 0 832 0 768 0C704 0 640 0 576 0C512 0 448 0 384 0C320 0 256 0 192 0C128 0 64 0 32 0L0 0Z" fill="#00e74e"></path></svg>