<svg id="visual" viewBox="0 0 900 600" width="900" height="600" xmlns="http://www.w3.org/2000/svg" xmlns:xlink="http://www.w3.org/1999/xlink" version="1.1"><rect x="0" y="0" width="900" height="600" fill="#fff"></rect><path d="M0 140L21.5 158.8C43 177.7 86 215.3 128.8 229.2C171.7 243 214.3 233 257.2 228.7C300 224.3 343 225.7 385.8 235.8C428.7 246 471.3 265 514.2 251.7C557 238.3 600 192.7 642.8 185.8C685.7 179 728.3 211 771.2 204.5C814 198 857 153 878.5 130.5L900 108L900 601L878.5 601C857 601 814 601 771.2 601C728.3 601 685.7 601 642.8 601C600 601 557 601 514.2 601C471.3 601 428.7 601 385.8 601C343 601 300 601 257.2 601C214.3 601 171.7 601 128.8 601C86 601 43 601 21.5 601L0 601Z" fill="#282828"></path><path d="M0 357L21.5 356.7C43 356.3 86 355.7 128.8 352.8C171.7 350 214.3 345 257.2 340.2C300 335.3 343 330.7 385.8 322.2C428.7 313.7 471.3 301.3 514.2 286.8C557 272.3 600 255.7 642.8 263C685.7 270.3 728.3 301.7 771.2 317C814 332.3 857 331.7 878.5 331.3L900 331L900 601L878.5 601C857 601 814 601 771.2 601C728.3 601 685.7 601 642.8 601C600 601 557 601 514.2 601C471.3 601 428.7 601 385.8 601C343 601 300 601 257.2 601C214.3 601 171.7 601 128.8 601C86 601 43 601 21.5 601L0 601Z" fill="#181818"></path><path d="M0 312L21.5 306C43 300 86 288 128.8 303.2C171.7 318.3 214.3 360.7 257.2 367C300 373.3 343 343.7 385.8 330.7C428.7 317.7 471.3 321.3 514.2 326.7C557 332 600 339 642.8 334.3C685.7 329.7 728.3 313.3 771.2 318.5C814 323.7 857 350.3 878.5 363.7L900 377L900 601L878.5 601C857 601 814 601 771.2 601C728.3 601 685.7 601 642.8 601C600 601 557 601 514.2 601C471.3 601 428.7 601 385.8 601C343 601 300 601 257.2 601C214.3 601 171.7 601 128.8 601C86 601 43 601 21.5 601L0 601Z" fill="#000000"></path><path d="M0 451L21.5 443.3C43 435.7 86 420.3 128.8 410.7C171.7 401 214.3 397 257.2 409.5C300 422 343 451 385.8 454.2C428.7 457.3 471.3 434.7 514.2 420.3C557 406 600 400 642.8 394.5C685.7 389 728.3 384 771.2 392.7C814 401.3 857 423.7 878.5 434.8L900 446L900 601L878.5 601C857 601 814 601 771.2 601C728.3 601 685.7 601 642.8 601C600 601 557 601 514.2 601C471.3 601 428.7 601 385.8 601C343 601 300 601 257.2 601C214.3 601 171.7 601 128.8 601C86 601 43 601 21.5 601L0 601Z" fill="#000000"></path><path d="M0 510L21.5 507C43 504 86 498 128.8 497.7C171.7 497.3 214.3 502.7 257.2 502.5C300 502.3 343 496.7 385.8 491.8C428.7 487 471.3 483 514.2 489.2C557 495.3 600 511.7 642.8 516.2C685.7 520.7 728.3 513.3 771.2 504.2C814 495 857 484 878.5 478.5L900 473L900 601L878.5 601C857 601 814 601 771.2 601C728.3 601 685.7 601 642.8 601C600 601 557 601 514.2 601C471.3 601 428.7 601 385.8 601C343 601 300 601 257.2 601C214.3 601 171.7 601 128.8 601C86 601 43 601 21.5 601L0 601Z" fill="#000000"></path></svg>