<svg id="visual" viewBox="0 0 960 540" width="960" height="540" xmlns="http://www.w3.org/2000/svg" xmlns:xlink="http://www.w3.org/1999/xlink" version="1.1"><rect x="0" y="0" width="960" height="540" fill="#000"></rect><path d="M0 394L32 399.5C64 405 128 416 192 410.2C256 404.3 320 381.7 384 383.5C448 385.3 512 411.7 576 423.5C640 435.3 704 432.7 768 423.7C832 414.7 896 399.3 928 391.7L960 384L960 541L928 541C896 541 832 541 768 541C704 541 640 541 576 541C512 541 448 541 384 541C320 541 256 541 192 541C128 541 64 541 32 541L0 541Z" fill="#00ce45"></path><path d="M0 427L32 431.5C64 436 128 445 192 442.5C256 440 320 426 384 424.2C448 422.3 512 432.7 576 438C640 443.3 704 443.7 768 446.5C832 449.3 896 454.7 928 457.3L960 460L960 541L928 541C896 541 832 541 768 541C704 541 640 541 576 541C512 541 448 541 384 541C320 541 256 541 192 541C128 541 64 541 32 541L0 541Z" fill="#00da49"></path><path d="M0 505L32 506.5C64 508 128 511 192 512.2C256 513.3 320 512.7 384 510.3C448 508 512 504 576 495.3C640 486.7 704 473.3 768 467.5C832 461.7 896 463.3 928 464.2L960 465L960 541L928 541C896 541 832 541 768 541C704 541 640 541 576 541C512 541 448 541 384 541C320 541 256 541 192 541C128 541 64 541 32 541L0 541Z" fill="#00e74e"></path></svg>