<svg id="visual" viewBox="0 0 900 675" width="900" height="675" xmlns="http://www.w3.org/2000/svg" xmlns:xlink="http://www.w3.org/1999/xlink" version="1.1"><rect x="0" y="0" width="900" height="675" fill="#000"></rect><path d="M0 28L10.7 27.2C21.3 26.3 42.7 24.7 64.2 25.5C85.7 26.3 107.3 29.7 128.8 35.5C150.3 41.3 171.7 49.7 193 51.7C214.3 53.7 235.7 49.3 257 44.3C278.3 39.3 299.7 33.7 321.2 31.2C342.7 28.7 364.3 29.3 385.8 31.8C407.3 34.3 428.7 38.7 450 39.8C471.3 41 492.7 39 514.2 40.8C535.7 42.7 557.3 48.3 578.8 50.2C600.3 52 621.7 50 643 49.2C664.3 48.3 685.7 48.7 707 46C728.3 43.3 749.7 37.7 771.2 37C792.7 36.3 814.3 40.7 835.8 44.7C857.3 48.7 878.7 52.3 889.3 54.2L900 56L900 0L889.3 0C878.7 0 857.3 0 835.8 0C814.3 0 792.7 0 771.2 0C749.7 0 728.3 0 707 0C685.7 0 664.3 0 643 0C621.7 0 600.3 0 578.8 0C557.3 0 535.7 0 514.2 0C492.7 0 471.3 0 450 0C428.7 0 407.3 0 385.8 0C364.3 0 342.7 0 321.2 0C299.7 0 278.3 0 257 0C235.7 0 214.3 0 193 0C171.7 0 150.3 0 128.8 0C107.3 0 85.7 0 64.2 0C42.7 0 21.3 0 10.7 0L0 0Z" fill="#eeeeee"></path><path d="M0 32L10.7 29.3C21.3 26.7 42.7 21.3 64.2 22.5C85.7 23.7 107.3 31.3 128.8 32.3C150.3 33.3 171.7 27.7 193 24.2C214.3 20.7 235.7 19.3 257 19C278.3 18.7 299.7 19.3 321.2 22.3C342.7 25.3 364.3 30.7 385.8 35.3C407.3 40 428.7 44 450 42.7C471.3 41.3 492.7 34.7 514.2 32.3C535.7 30 557.3 32 578.8 32.5C600.3 33 621.7 32 643 30.5C664.3 29 685.7 27 707 26.5C728.3 26 749.7 27 771.2 27.2C792.7 27.3 814.3 26.7 835.8 28.3C857.3 30 878.7 34 889.3 36L900 38L900 0L889.3 0C878.7 0 857.3 0 835.8 0C814.3 0 792.7 0 771.2 0C749.7 0 728.3 0 707 0C685.7 0 664.3 0 643 0C621.7 0 600.3 0 578.8 0C557.3 0 535.7 0 514.2 0C492.7 0 471.3 0 450 0C428.7 0 407.3 0 385.8 0C364.3 0 342.7 0 321.2 0C299.7 0 278.3 0 257 0C235.7 0 214.3 0 193 0C171.7 0 150.3 0 128.8 0C107.3 0 85.7 0 64.2 0C42.7 0 21.3 0 10.7 0L0 0Z" fill="#f6f6f6"></path><path d="M0 19L10.7 19C21.3 19 42.7 19 64.2 21.5C85.7 24 107.3 29 128.8 28.3C150.3 27.7 171.7 21.3 193 20.2C214.3 19 235.7 23 257 22.7C278.3 22.3 299.7 17.7 321.2 18.8C342.7 20 364.3 27 385.8 27.5C407.3 28 428.7 22 450 19.2C471.3 16.3 492.7 16.7 514.2 17.5C535.7 18.3 557.3 19.7 578.8 20C600.3 20.3 621.7 19.7 643 20.3C664.3 21 685.7 23 707 24C728.3 25 749.7 25 771.2 24.3C792.7 23.7 814.3 22.3 835.8 22.7C857.3 23 878.7 25 889.3 26L900 27L900 0L889.3 0C878.7 0 857.3 0 835.8 0C814.3 0 792.7 0 771.2 0C749.7 0 728.3 0 707 0C685.7 0 664.3 0 643 0C621.7 0 600.3 0 578.8 0C557.3 0 535.7 0 514.2 0C492.7 0 471.3 0 450 0C428.7 0 407.3 0 385.8 0C364.3 0 342.7 0 321.2 0C299.7 0 278.3 0 257 0C235.7 0 214.3 0 193 0C171.7 0 150.3 0 128.8 0C107.3 0 85.7 0 64.2 0C42.7 0 21.3 0 10.7 0L0 0Z" fill="#ffffff"></path><path d="M0 18L10.7 17.8C21.3 17.7 42.7 17.3 64.2 16.5C85.7 15.7 107.3 14.3 128.8 14.3C150.3 14.3 171.7 15.7 193 15.8C214.3 16 235.7 15 257 13.7C278.3 12.3 299.7 10.7 321.2 12.3C342.7 14 364.3 19 385.8 21.5C407.3 24 428.7 24 450 23.3C471.3 22.7 492.7 21.3 514.2 21C535.7 20.7 557.3 21.3 578.8 22.5C600.3 23.7 621.7 25.3 643 23.5C664.3 21.7 685.7 16.3 707 13.8C728.3 11.3 749.7 11.7 771.2 13.5C792.7 15.3 814.3 18.7 835.8 18.7C857.3 18.7 878.7 15.3 889.3 13.7L900 12L900 0L889.3 0C878.7 0 857.3 0 835.8 0C814.3 0 792.7 0 771.2 0C749.7 0 728.3 0 707 0C685.7 0 664.3 0 643 0C621.7 0 600.3 0 578.8 0C557.3 0 535.7 0 514.2 0C492.7 0 471.3 0 450 0C428.7 0 407.3 0 385.8 0C364.3 0 342.7 0 321.2 0C299.7 0 278.3 0 257 0C235.7 0 214.3 0 193 0C171.7 0 150.3 0 128.8 0C107.3 0 85.7 0 64.2 0C42.7 0 21.3 0 10.7 0L0 0Z" fill="#ffffff"></path><path d="M0 11L10.7 9.7C21.3 8.3 42.7 5.7 64.2 5.5C85.7 5.3 107.3 7.7 128.8 8.2C150.3 8.7 171.7 7.3 193 7.8C214.3 8.3 235.7 10.7 257 10.3C278.3 10 299.7 7 321.2 5.5C342.7 4 364.3 4 385.8 5C407.3 6 428.7 8 450 9.8C471.3 11.7 492.7 13.3 514.2 14.5C535.7 15.7 557.3 16.3 578.8 16.7C600.3 17 621.7 17 643 15.7C664.3 14.3 685.7 11.7 707 9.3C728.3 7 749.7 5 771.2 4.8C792.7 4.7 814.3 6.3 835.8 6.5C857.3 6.7 878.7 5.3 889.3 4.7L900 4L900 0L889.3 0C878.7 0 857.3 0 835.8 0C814.3 0 792.7 0 771.2 0C749.7 0 728.3 0 707 0C685.7 0 664.3 0 643 0C621.7 0 600.3 0 578.8 0C557.3 0 535.7 0 514.2 0C492.7 0 471.3 0 450 0C428.7 0 407.3 0 385.8 0C364.3 0 342.7 0 321.2 0C299.7 0 278.3 0 257 0C235.7 0 214.3 0 193 0C171.7 0 150.3 0 128.8 0C107.3 0 85.7 0 64.2 0C42.7 0 21.3 0 10.7 0L0 0Z" fill="#ffffff"></path></svg>