<svg width="224" height="31" viewBox="0 0 224 31" fill="none" xmlns="http://www.w3.org/2000/svg">
<path d="M55.0329 12.8763V0.518677H60.6661V7.25919L55.0329 12.8763C55.0329 12.8763 59.6896 17.3562 60.6661 18.4934V24.6722C60.6661 28.6955 60.6661 30.4774 60.6661 30.851C60.1044 30.851 55.049 30.851 55.0329 30.851V18.5091H46.2855L37.0743 18.4934C37.0743 18.4934 37.0743 26.8531 37.0743 30.851H31.4572V0.518677H37.0806V12.8763H43.8148C48.0164 12.8763 51.0196 12.9272 52.8021 12.8763H55.0329Z" fill="url(#paint0_linear_5_114)"/>
<path fill-rule="evenodd" clip-rule="evenodd" d="M29.2089 12.8763V0.556872C29.2089 0.556872 0.561714 0.51866 4.01766e-06 0.518677L0 6.13578C3.9162 6.09883 7.84074 6.1174 11.767 6.13598C15.7091 6.15463 19.653 6.17329 23.5918 6.13578V12.8763C22.3204 12.8924 20.6733 12.8881 18.6175 12.8828C17.4206 12.8797 16.085 12.8763 14.6045 12.8763C13.1368 12.8763 11.8066 12.8728 10.6112 12.8698C8.55039 12.8644 6.89025 12.8602 5.6171 12.8763L4.01766e-06 18.4934L0 30.851L5.6171 24.1105V18.4934H7.86394C8.88677 18.4614 10.6418 18.4696 12.9025 18.4801C14.2438 18.4863 15.7631 18.4934 17.413 18.4934H23.5918L29.2089 12.8763ZM5.6171 30.851V25.2339H29.2089V30.851H5.6171Z" fill="url(#paint1_linear_5_114)"/>
<path fill-rule="evenodd" clip-rule="evenodd" d="M29.2089 1.6421H0V0.518677H29.2089V1.6421Z" fill="#ADFF9F"/>
<path fill-rule="evenodd" clip-rule="evenodd" d="M23.5918 14.0024H4.49365L5.61707 12.879H23.5918V14.0024Z" fill="#83F6FF"/>
<path fill-rule="evenodd" clip-rule="evenodd" d="M29.2025 26.3633H5.61072V25.2399H29.2025V26.3633Z" fill="#68D1FF"/>
<path fill-rule="evenodd" clip-rule="evenodd" d="M37.0719 14.0024H56.17L55.0466 12.879H37.0719V14.0024Z" fill="#83F6FF"/>
<path fill-rule="evenodd" clip-rule="evenodd" d="M37.0743 1.6421L31.4572 1.6421L31.4572 0.518677L37.0743 0.518676L37.0743 1.6421Z" fill="#ADFF9F"/>
<path fill-rule="evenodd" clip-rule="evenodd" d="M60.6623 1.6421L55.0452 1.6421L55.0452 0.518677L60.6623 0.518676L60.6623 1.6421Z" fill="#ADFF9F"/>
<path d="M67.4702 0.949377L68.0472 0.14856H71.0209L77.4122 27.4653H77.9892L84.6912 3.52979H88.4195L95.0771 27.4653H95.6985L102.09 0.14856H105.063L105.64 0.949377L98.5834 30.8465H92.414L86.5554 9.5804L80.6967 30.8465H74.5273L67.4702 0.949377Z" fill="#1BFF68"/>
<path d="M114.191 30.8465C109.723 30.8465 107.489 28.6072 107.489 24.1286C107.489 19.6499 109.723 17.4106 114.191 17.4106H122.313V13.9404C122.313 11.8642 121.278 10.8261 119.206 10.8261H109.708V9.04653L111.484 7.71183H119.206C123.645 7.71183 125.864 9.93632 125.864 14.3853V30.8465H114.191ZM111.04 24.618C111.04 26.6942 112.075 27.7322 114.147 27.7322H122.313V20.3024H114.147C112.075 20.3024 111.04 21.3405 111.04 23.4167V24.618Z" fill="#1BFF68"/>
<path d="M132.166 30.8465V10.3812C133.202 8.60163 135.125 7.71183 137.936 7.71183H142.375L144.15 9.04653V10.8261H138.424C137.182 10.8261 136.279 11.1672 135.717 11.8494V30.8465H132.166Z" fill="#1BFF68"/>
<path d="M147.526 29.5118V27.7322H157.779C159.821 27.7322 160.841 26.6942 160.841 24.618C160.841 22.5121 160.028 21.3257 158.4 21.0588L153.119 20.169C149.39 19.5461 147.526 17.5144 147.526 14.0739C147.526 9.83251 149.745 7.71183 154.184 7.71183H161.596L163.371 9.04653V10.8261H154.139C152.068 10.8261 151.033 11.8642 151.033 13.9404C151.033 15.809 151.905 16.8916 153.651 17.1882L158.933 18.078C162.602 18.6712 164.437 20.7918 164.437 24.44C164.437 28.711 162.188 30.8465 157.69 30.8465H149.302L147.526 29.5118Z" fill="#1BFF68"/>
<path d="M175.621 30.8465C171.153 30.8465 168.919 28.6072 168.919 24.1286C168.919 19.6499 171.153 17.4106 175.621 17.4106H183.744V13.9404C183.744 11.8642 182.708 10.8261 180.637 10.8261H171.139V9.04653L172.914 7.71183H180.637C185.075 7.71183 187.294 9.93632 187.294 14.3853V30.8465H175.621ZM172.47 24.618C172.47 26.6942 173.506 27.7322 175.577 27.7322H183.744V20.3024H175.577C173.506 20.3024 172.47 21.3405 172.47 23.4167V24.618Z" fill="#1BFF68"/>
<path d="M191.289 8.33469L191.732 7.71183H194.662L199.366 27.7322H199.988L205.625 7.71183H209.664L215.3 27.7322H215.922L220.671 7.71183H223.556L224 8.33469L218.585 30.8465H212.904L207.622 11.8049L202.385 30.8465H196.703L191.289 8.33469Z" fill="#1BFF68"/>
<defs>
<linearGradient id="paint0_linear_5_114" x1="55.6107" y1="-1.16645" x2="46.0616" y2="22.4254" gradientUnits="userSpaceOnUse">
<stop stop-color="#22D860"/>
<stop offset="0.526042" stop-color="#27F2FF"/>
<stop offset="1" stop-color="#05AAF1"/>
</linearGradient>
<linearGradient id="paint1_linear_5_114" x1="24.1535" y1="-1.16645" x2="14.6045" y2="22.4253" gradientUnits="userSpaceOnUse">
<stop stop-color="#22D860"/>
<stop offset="0.526042" stop-color="#27F2FF"/>
<stop offset="1" stop-color="#05AAF1"/>
</linearGradient>
</defs>
</svg>
